<?xml version="1.0" ?><!DOCTYPE svg  PUBLIC '-//W3C//DTD SVG 1.1//EN'  'http://www.w3.org/Graphics/SVG/1.1/DTD/svg11.dtd'><svg height="173px" style="enable-background:new 0 0 175 173;" version="1.1" viewBox="0 0 175 173" width="175px" xml:space="preserve" xmlns="http://www.w3.org/2000/svg" xmlns:xlink="http://www.w3.org/1999/xlink"><style type="text/css">
<![CDATA[
	.st0{fill:#EF3E42;}
	.st1{fill:#54B948;}
	.st2{fill:#FFC425;}
	.st3{fill:#FFFFFF;}
	.st4{fill:none;}
]]>
</style><defs/><path d="M161.2,10.5c0.3,0,0.6,0.3,0.6,0.6v151.8c0,0.3-0.3,0.6-0.6,0.6H9.4c-0.3,0-0.6-0.3-0.6-0.6V11.1c0-0.3,0.3-0.6,0.6-0.6  H161.2L161.2,10.5z"/><polygon class="st2" points="18.3,20.1 152.2,20.1 152.2,154 18.3,154 18.3,20.1 "/><path d="M99.4,117.4c-2.4,1.4-4.8,2.7-7.2,4.1c-0.1,0.1-0.2,0.1-0.2,0.2c0-0.1,0.1-0.2,0.1-0.3c0.2-0.7,0.4-1.4,0.5-2.1  c1.6-6.2,3.2-12.4,4.7-18.7c2.9-11.4,5.8-22.9,8.7-34.3c0-0.1-0.1-0.2-0.2-0.2c-6.5,3.8-13,7.6-19.4,11.5c-2.9,1.7-5.8,3.4-8.7,5.1  c0.1-0.1,0.2-0.2,0.3-0.4c0.5-1.1,1-2.3,1.5-3.4c6.4-14.5,12.7-29.1,19.1-43.7c0-0.1,0-0.2-0.1-0.2c-6,0-12,0-17.9,0  c-0.1,0-0.1,0-0.2,0.1c-5.3,20.9-10.6,41.8-16,62.7c0,0.1,0.1,0.2,0.2,0.2c6-3.5,12-6.9,18-10.4c2.7-1.6,5.4-3.1,8.1-4.7  c0.1-0.1,0.1-0.1,0.2-0.1c0,0.1-0.1,0.3-0.2,0.6c-0.2,1.2-0.3,2.4-0.5,3.6c-1.3,8.7-2.5,17.4-3.8,26.1c-0.4,2.5-1.1,7.4-1.1,7.4  s-4.1-5.5-5.3-6.9c-0.1-0.1-0.3,0-0.3,0.2c1.7,8.4,3.4,16.8,5.1,25.2c0,0,0,0,0,0c0,0.1,0.1,0.1,0.2,0.1c0,0,0.1,0,0.1-0.1  c4.8-7.1,9.5-14.3,14.3-21.4C99.7,117.5,99.6,117.3,99.4,117.4L99.4,117.4L99.4,117.4z M105.8,66.4L105.8,66.4  C105.8,66.4,105.8,66.3,105.8,66.4C105.8,66.3,105.8,66.4,105.8,66.4L105.8,66.4L105.8,66.4z M98.4,35.3L98.4,35.3  C98.4,35.3,98.4,35.3,98.4,35.3C98.4,35.3,98.4,35.3,98.4,35.3L98.4,35.3L98.4,35.3z M64.9,97.7l0.6-0.4  C65.2,97.6,65,97.8,64.9,97.7L64.9,97.7L64.9,97.7z M80.3,114L80.3,114c0-0.1-0.1-0.2-0.1-0.3C80.3,113.8,80.3,113.9,80.3,114  L80.3,114L80.3,114z M99.3,117.9L99.3,117.9c0.1-0.1,0.1-0.1,0.2-0.1C99.4,117.8,99.3,117.8,99.3,117.9L99.3,117.9L99.3,117.9z"/><rect class="st4" height="173" id="_x3C_Slice_x3E__48_" width="175"/></svg>