<?xml version="1.0" ?><!DOCTYPE svg  PUBLIC '-//W3C//DTD SVG 1.1//EN'  'http://www.w3.org/Graphics/SVG/1.1/DTD/svg11.dtd'><svg enable-background="new 0 0 512 512" height="512px" id="Post_x5F_office" version="1.1" viewBox="0 0 512 512" width="512px" xml:space="preserve" xmlns="http://www.w3.org/2000/svg" xmlns:xlink="http://www.w3.org/1999/xlink"><g><g><path d="M35.608,438.783v10h46.738h18.95h18.09v-10h-18.09h-8.95v-9.499h17.374v-0.174h145.792v0.174h27.378v-0.174h15.864v-10    H282.89V252.967h-27.378H109.72H92.346v-35.125h41v-10h-41V196.99h306.976v10.851H168.687v10h230.635v35.126h-96.745v122.235    h68.914v38.017h-7.827v5.891h-28.997v10h28.997v9.673H131.579v10h232.084h40.658h6.384h36.873h28.814v-10h-28.814V413.22h-8.836    V314.94h8.836v-34.554h-83.915v34.554h7.827v50.263h-58.914V262.968h86.745v6.949h10V196.99h15.119v-43.419h-84.775V63.217    H151.996v90.354H67.217v43.419h15.129v55.977h-0.004V429.11v0.174h0.004v9.499H35.608z M410.705,438.783h-6.384h-30.658V423.22    h63.915v15.563H410.705z M381.49,413.22v-6.835h47.252v6.835H381.49z M373.663,290.387h63.915v14.554h-63.915V290.387z     M428.742,314.94v81.444H381.49V314.94H428.742z M271.186,119.925l58.479-41.965v87.567L271.186,119.925z M250.313,122.596    c-2.68,1.924-6.281,1.923-8.961-0.001l-68.811-49.378h146.581L250.313,122.596z M220.476,119.923l-58.48,45.606v-87.57    L220.476,119.923z M228.945,126l6.577,4.72c3.084,2.213,6.696,3.319,10.311,3.319c3.613,0,7.227-1.106,10.311-3.319l6.574-4.718    l57.41,44.768h-148.59L228.945,126z M77.217,186.99v-23.419h74.779v17.198h187.669v-17.198h74.775v23.419h-5.119H82.346H77.217z     M272.89,262.967V419.11h-7.378V262.967H272.89z M255.512,262.967V419.11H109.72V262.967H255.512z M99.72,262.967V419.11h-7.374    V262.967H99.72z"/><rect height="10" width="11.696" x="12.104" y="438.783"/><rect height="10" width="11.696" x="488.2" y="438.783"/><rect height="133.354" width="10" x="177.616" y="274.063"/><rect height="10" width="14.313" x="309.696" y="419.11"/><rect height="10" width="11.991" x="145.008" y="207.841"/><rect height="10" width="30.393" x="389.92" y="329.061"/></g></g></svg>